<?xml version="1.0" encoding="UTF-8"?>
<svg width="186px" height="94px" viewBox="0 0 186 94" version="1.1" xmlns="http://www.w3.org/2000/svg" xmlns:xlink="http://www.w3.org/1999/xlink">
    <title>book-appointment</title>
    <g id="book-appointment" stroke="none" stroke-width="1" fill="none" fill-rule="evenodd">
        <g id="undraw_schedule_meeting_52nu">
            <g id="Group-4" transform="translate(141.655709, 22.000000)">
                <path d="M4.94285272,49.4864929 C4.94285272,49.4864929 6.32707381,35.2202864 14.570048,27.6340897 C18.0468141,24.4724611 20.405182,20.2691115 21.2916261,15.6541343 C21.6950468,13.4602288 21.8961115,11.233907 21.8923402,9.00322212" id="Path" stroke="#535461" stroke-width="0.75"></path>
                <path d="M27.059214,4.18962447 C26.435691,5.75258882 21.7717388,9.14455401 21.7717388,9.14455401 C21.7717388,9.14455401 20.7699452,3.472573 21.3997034,1.90960865 C22.0310342,0.346778007 23.8097535,-0.40835182 25.3725842,0.222978964 C26.9354149,0.854309748 27.6905447,2.63302903 27.059214,4.1958597 L27.059214,4.18962447 Z" id="Path" fill="#C20034" fill-rule="nonzero"></path>
                <path d="M28.2459861,14.7313202 C26.8680002,15.6998593 21.1170397,16.017856 21.1170397,16.017856 C21.1170397,16.017856 23.3575657,10.7095968 24.7355515,9.74105769 C25.6252975,9.0751495 26.8067458,8.94568909 27.8195842,9.40311642 C28.8324227,9.86054375 29.5164383,10.832502 29.6051269,11.9402997 C29.6938156,13.0480974 29.1731484,14.1165008 28.2459861,14.7292418 L28.2459861,14.7313202 Z" id="Path" fill="#C20034" fill-rule="nonzero"></path>
                <path d="M22.0814219,29.4423065 C20.4020666,29.5836384 15.2767074,26.9482144 15.2767074,26.9482144 C15.2767074,26.9482144 19.8907777,23.4980538 21.570133,23.3567219 C23.249473,23.2155333 24.7253029,24.4624514 24.8664914,26.1417913 C25.0076799,27.8211312 23.7607618,29.2969611 22.0814219,29.4381496 L22.0814219,29.4423065 Z" id="Path" fill="#C20034" fill-rule="nonzero"></path>
                <path d="M14.9088289,39.5205168 C13.277277,39.9361988 7.78196084,38.2173537 7.78196084,38.2173537 C7.78196084,38.2173537 11.7454888,34.0376711 13.3770407,33.6136754 C15.0081698,33.1906838 16.6733637,34.1700728 17.0963554,35.801202 C17.519347,37.4323312 16.539958,39.0975251 14.9088289,39.5205168 L14.9088289,39.5205168 Z" id="Path" fill="#C20034" fill-rule="nonzero"></path>
                <path d="M15.0543176,13.9248971 C15.7360361,15.4649989 20.5039087,18.7052402 20.5039087,18.7052402 C20.5039087,18.7052402 21.3144886,13.002083 20.6327701,11.4619812 C19.9262907,9.96341347 18.1530277,9.3024659 16.6380486,9.97303041 C15.1230695,10.6435949 14.4200488,12.4006025 15.0543176,13.9311323 L15.0543176,13.9248971 Z" id="Path" fill="#C20034" fill-rule="nonzero"></path>
                <path d="M6.81550017,25.8175594 C7.92744954,27.0833111 13.4435498,28.7418823 13.4435498,28.7418823 C13.4435498,28.7418823 12.5124221,23.0574308 11.4004727,21.7916791 C10.6861787,20.9548324 9.57665499,20.5673707 8.49669377,20.7776375 C7.41673255,20.9879043 6.53362106,21.763329 6.18546728,22.8070326 C5.83731349,23.8507363 6.07804684,25.0010479 6.81550017,25.8175594 L6.81550017,25.8175594 Z" id="Path" fill="#C20034" fill-rule="nonzero"></path>
                <path d="M0.395291549,38.4792333 C1.27653741,39.9133363 6.43307272,42.4801727 6.43307272,42.4801727 C6.43307272,42.4801727 6.47671933,36.7208984 5.6017087,35.2847171 C4.69611731,33.9060274 2.85874966,33.4967087 1.45356476,34.3606164 C0.0483798624,35.2245241 -0.415765784,37.0488131 0.405683599,38.4792333 L0.395291549,38.4792333 Z" id="Path" fill="#C20034" fill-rule="nonzero"></path>
            </g>
            <g id="Group-3" transform="translate(145.655709, 49.000000)">
                <path d="M-1.24344979e-13,37.6407862 C-1.24344979e-13,37.6407862 7.04581004,25.1599339 17.6664854,21.5642845 C22.1262167,20.0831907 25.9855034,17.1960184 28.6654313,13.3358592 C29.92234,11.4903831 31.0069819,9.53329679 31.9056725,7.48929173" id="Path" stroke="#535461" stroke-width="0.75"></path>
                <path d="M38.573212,5.20304069 C37.3635773,6.37526395 31.7331645,7.58905541 31.7331645,7.58905541 C31.7331645,7.58905541 33.1153072,1.9981324 34.3249418,0.823830728 C35.539637,-0.313431437 37.4415647,-0.267693803 38.6001895,0.926642058 C39.7588143,2.12097792 39.7468128,4.02341762 38.573212,5.20304069 Z" id="Path" fill="#C20034" fill-rule="nonzero"></path>
                <path d="M35.3890878,15.3103487 C33.7263597,15.6387375 28.349513,13.5977388 28.349513,13.5977388 C28.349513,13.5977388 32.5479012,9.64875976 34.2002372,9.32660621 C35.2802103,9.0869316 36.4053138,9.45060109 37.1406809,10.2770518 C37.8760481,11.1035026 38.1064674,12.2632527 37.7428788,13.308044 C37.3792901,14.3528354 36.4786579,15.1189783 35.3890878,15.3103487 L35.3890878,15.3103487 Z" id="Path" fill="#C20034" fill-rule="nonzero"></path>
                <path d="M23.7998734,26.2594128 C22.2078113,25.7086342 18.5892994,21.2275821 18.5892994,21.2275821 C18.5892994,21.2275821 24.2010065,19.9431247 25.7972254,20.4939034 C26.8409412,20.8401325 27.6176039,21.7212062 27.8301415,22.8001153 C28.0426792,23.8790244 27.6582067,24.9888337 26.823784,25.7050432 C25.9893614,26.4212526 24.8340955,26.633046 23.7998734,26.2594128 L23.7998734,26.2594128 Z" id="Path" fill="#C20034" fill-rule="nonzero"></path>
                <path d="M13.1501003,32.5694657 C11.4873723,32.2951156 7.17259305,28.4812331 7.17259305,28.4812331 C7.17259305,28.4812331 12.4912443,26.265648 14.151894,26.5399982 C15.8163115,26.8137662 16.9436556,28.384976 16.6698876,30.0493935 C16.3961196,31.713811 14.8249099,32.8411552 13.1604924,32.5673873 L13.1501003,32.5694657 Z" id="Path" fill="#C20034" fill-rule="nonzero"></path>
                <path d="M23.6543836,9.22684252 C23.6523063,10.9124331 26.7096474,15.8029319 26.7096474,15.8029319 C26.7096474,15.8029319 29.7628318,10.9186683 29.7628318,9.23515617 C29.7917752,8.12648914 29.216849,7.08942436 28.2612488,6.52656689 C27.3056486,5.96370942 26.1198815,5.96370942 25.1642813,6.52656689 C24.2086811,7.08942436 23.633755,8.12648914 23.6626983,9.23515617 L23.6543836,9.22684252 Z" id="Path" fill="#C20034" fill-rule="nonzero"></path>
                <path d="M11.3023938,16.7631573 C11.805369,18.3718467 16.1783438,22.1233768 16.1783438,22.1233768 C16.1783438,22.1233768 17.6332308,16.5490811 17.1260987,14.9403917 C16.579492,13.3912736 14.9045193,12.5529979 13.3368902,13.0440018 C11.769261,13.5350057 10.8717746,15.1790122 11.3065506,16.7631573 L11.3023938,16.7631573 Z" id="Path" fill="#C20034" fill-rule="nonzero"></path>
                <path d="M0.313839916,25.7356535 C0.538308201,27.3983815 4.21293715,31.8399438 4.21293715,31.8399438 C4.21293715,31.8399438 6.58440301,26.5919584 6.35993473,24.9229952 C6.23870857,23.8221885 5.53051303,22.8735004 4.50959774,22.4443115 C3.48868246,22.0151226 2.3153629,22.172829 1.44400861,22.8563587 C0.572654321,23.5398884 0.14009504,24.6419059 0.313839916,25.7356535 L0.313839916,25.7356535 Z" id="Path" fill="#C20034" fill-rule="nonzero"></path>
                <path d="M38.573212,5.20304069 C37.3635773,6.37526395 31.7331645,7.58905541 31.7331645,7.58905541 C31.7331645,7.58905541 33.1153072,1.9981324 34.3249418,0.823830728 C35.539637,-0.313431437 37.4415647,-0.267693803 38.6001895,0.926642058 C39.7588143,2.12097792 39.7468128,4.02341762 38.573212,5.20304069 Z" id="Path" fill="#000000" fill-rule="nonzero" opacity="0.25"></path>
                <path d="M35.3890878,15.3103487 C33.7263597,15.6387375 28.349513,13.5977388 28.349513,13.5977388 C28.349513,13.5977388 32.5479012,9.64875976 34.2002372,9.32660621 C35.2802103,9.0869316 36.4053138,9.45060109 37.1406809,10.2770518 C37.8760481,11.1035026 38.1064674,12.2632527 37.7428788,13.308044 C37.3792901,14.3528354 36.4786579,15.1189783 35.3890878,15.3103487 L35.3890878,15.3103487 Z" id="Path" fill="#000000" fill-rule="nonzero" opacity="0.25"></path>
                <path d="M23.7998734,26.2594128 C22.2078113,25.7086342 18.5892994,21.2275821 18.5892994,21.2275821 C18.5892994,21.2275821 24.2010065,19.9431247 25.7972254,20.4939034 C26.8409412,20.8401325 27.6176039,21.7212062 27.8301415,22.8001153 C28.0426792,23.8790244 27.6582067,24.9888337 26.823784,25.7050432 C25.9893614,26.4212526 24.8340955,26.633046 23.7998734,26.2594128 L23.7998734,26.2594128 Z" id="Path" fill="#000000" fill-rule="nonzero" opacity="0.25"></path>
                <path d="M13.1501003,32.5694657 C11.4873723,32.2951156 7.17259305,28.4812331 7.17259305,28.4812331 C7.17259305,28.4812331 12.4912443,26.265648 14.151894,26.5399982 C15.8163115,26.8137662 16.9436556,28.384976 16.6698876,30.0493935 C16.3961196,31.713811 14.8249099,32.8411552 13.1604924,32.5673873 L13.1501003,32.5694657 Z" id="Path" fill="#000000" fill-rule="nonzero" opacity="0.25"></path>
                <path d="M23.6543836,9.22684252 C23.6523063,10.9124331 26.7096474,15.8029319 26.7096474,15.8029319 C26.7096474,15.8029319 29.7628318,10.9186683 29.7628318,9.23515617 C29.7917752,8.12648914 29.216849,7.08942436 28.2612488,6.52656689 C27.3056486,5.96370942 26.1198815,5.96370942 25.1642813,6.52656689 C24.2086811,7.08942436 23.633755,8.12648914 23.6626983,9.23515617 L23.6543836,9.22684252 Z" id="Path" fill="#000000" fill-rule="nonzero" opacity="0.25"></path>
                <path d="M11.3023938,16.7631573 C11.805369,18.3718467 16.1783438,22.1233768 16.1783438,22.1233768 C16.1783438,22.1233768 17.6332308,16.5490811 17.1260987,14.9403917 C16.579492,13.3912736 14.9045193,12.5529979 13.3368902,13.0440018 C11.769261,13.5350057 10.8717746,15.1790122 11.3065506,16.7631573 L11.3023938,16.7631573 Z" id="Path" fill="#000000" fill-rule="nonzero" opacity="0.25"></path>
                <path d="M0.313839916,25.7356535 C0.538308201,27.3983815 4.21293715,31.8399438 4.21293715,31.8399438 C4.21293715,31.8399438 6.58440301,26.5919584 6.35993473,24.9229952 C6.23870857,23.8221885 5.53051303,22.8735004 4.50959774,22.4443115 C3.48868246,22.0151226 2.3153629,22.172829 1.44400861,22.8563587 C0.572654321,23.5398884 0.14009504,24.6419059 0.313839916,25.7356535 L0.313839916,25.7356535 Z" id="Path" fill="#000000" fill-rule="nonzero" opacity="0.25"></path>
            </g>
            <g id="Group-2" transform="translate(0.280709, 34.000000)">
                <path d="M44.3801488,59.7003926 C44.3801488,59.7003926 28.7920735,47.9158077 25.8473444,32.9257477 C24.6531699,26.6299559 21.4500565,20.8910031 16.7184006,16.5696054 C14.4548678,14.536784 12.0101053,12.7153079 9.41467881,11.12795" id="Path" stroke="#535461" stroke-width="1.5"></path>
                <path d="M7.50726523,1.68441054 C8.87334747,3.53230601 9.49120209,11.3631882 9.49120209,11.3631882 C9.49120209,11.3631882 2.18748026,8.48647977 0.818563825,6.64141849 C-0.550276081,4.7943846 -0.162623282,2.18740379 1.68441059,0.818563862 C3.53144446,-0.550276071 6.13842527,-0.162623311 7.50726523,1.68441054 L7.50726523,1.68441054 Z" id="Path" fill="#C20034" fill-rule="nonzero"></path>
                <path d="M20.6069169,7.82894641 C20.7486267,10.1218106 17.0159912,17.0315792 17.0159912,17.0315792 C17.0159912,17.0315792 12.4444338,10.6433026 12.2998898,8.35043838 C12.1854931,6.07571035 13.9213463,4.13179466 16.1944712,3.98904552 C18.4675962,3.84629638 20.4330033,5.55777796 20.6040827,7.82894641 L20.6069169,7.82894641 Z" id="Path" fill="#C20034" fill-rule="nonzero"></path>
                <path d="M33.3041128,25.4916528 C32.2724656,27.5436104 25.5582564,31.6248519 25.5582564,31.6248519 C25.5582564,31.6248519 24.841205,23.8024723 25.8728521,21.7505148 C26.9293658,19.7430135 29.3993101,18.9518847 31.425566,19.9719677 C33.451822,20.9920508 34.2874324,23.4473033 33.3041128,25.4916528 L33.3041128,25.4916528 Z" id="Path" fill="#C20034" fill-rule="nonzero"></path>
                <path d="M39.9049541,41.0117074 C39.2332498,43.208209 33.306947,48.3636106 33.306947,48.3636106 C33.306947,48.3636106 31.2748288,40.7764692 31.9465331,38.5771335 C32.6188222,36.3794763 34.9453733,35.1429211 37.1430306,35.8152101 C39.3406878,36.4874991 40.5772431,38.8140502 39.9049541,41.0117074 L39.9049541,41.0117074 Z" id="Path" fill="#C20034" fill-rule="nonzero"></path>
                <path d="M10.2592691,22.5866024 C12.5266255,22.8926955 19.6943059,19.6560443 19.6943059,19.6560443 C19.6943059,19.6560443 13.6461327,14.6451866 11.3674395,14.3390935 C9.08995281,14.0330807 6.99561264,15.631276 6.68959983,17.9087627 C6.38358701,20.1862494 7.98178237,22.2805896 10.2592691,22.5866024 L10.2592691,22.5866024 Z" id="Path" fill="#C20034" fill-rule="nonzero"></path>
                <path d="M18.2091875,40.643262 C20.4765439,40.2549772 26.334826,35.0258865 26.334826,35.0258865 C26.334826,35.0258865 19.0622803,32.0556496 16.7977581,32.4439344 C15.3224206,32.6857742 14.0902607,33.7005746 13.5701181,35.1022018 C13.0499754,36.5038291 13.3218278,38.0767671 14.2822348,39.2225095 C15.2426419,40.3682519 16.74393,40.9106278 18.2148559,40.643262 L18.2091875,40.643262 Z" id="Path" fill="#C20034" fill-rule="nonzero"></path>
                <path d="M28.3414364,57.1354457 C30.639969,57.1354457 37.3003284,52.9720125 37.3003284,52.9720125 C37.3003284,52.9720125 30.6371348,48.8142477 28.3386022,48.8142477 C26.0407669,48.8142477 24.1780032,50.6770113 24.1780032,52.9748467 C24.1780032,55.2726821 26.0407669,57.1354457 28.3386022,57.1354457 L28.3414364,57.1354457 Z" id="Path" fill="#C20034" fill-rule="nonzero"></path>
            </g>
            <rect id="Rectangle" fill="#FFFFFF" x="24.2" y="10.03344" width="129.2" height="83.96656" rx="7"></rect>
            <path d="M146.4,93.63344 L30,93.63344 C26.1358343,93.6290314 23.0044086,90.4976057 23,86.63344 L23,17.03344 C23.0044086,13.1692743 26.1358343,10.0378486 30,10.03344 L146.4,10.03344 C150.264166,10.0378486 153.395591,13.1692743 153.4,17.03344 L153.4,86.63344 C153.395591,90.4976057 150.264166,93.6290314 146.4,93.63344 Z M30,11.23344 C26.7982736,11.2371189 24.2036789,13.8317136 24.2,17.03344 L24.2,86.63344 C24.2036789,89.8351664 26.7982736,92.4297611 30,92.43344 L146.4,92.43344 C149.601726,92.4297611 152.196321,89.8351664 152.2,86.63344 L152.2,17.03344 C152.196319,13.8317145 149.601726,11.2371211 146.4,11.23344 L30,11.23344 Z" id="Shape" fill="#3F3D56" fill-rule="nonzero"></path>
            <path d="M45.6,26.43344 C43.5776888,26.43344 41.7545073,25.2152291 40.9806023,23.3468572 C40.2066973,21.4784852 40.6344761,19.3278961 42.0644661,17.8979061 C43.4944561,16.4679161 45.6450452,16.0401373 47.5134172,16.8140423 C49.3817891,17.5879473 50.6,19.4111288 50.6,21.43344 C50.5968962,24.1935771 48.3601371,26.4303362 45.6,26.43344 L45.6,26.43344 Z M45.6,17.63344 C43.501318,17.63344 41.8,19.334758 41.8,21.43344 C41.8,23.532122 43.501318,25.23344 45.6,25.23344 C47.698682,25.23344 49.4,23.532122 49.4,21.43344 C49.3976193,19.3357449 47.6976951,17.6358207 45.6,17.63344 Z" id="Shape" fill="#3F3D56" fill-rule="nonzero"></path>
            <path d="M130,26.43344 C127.238576,26.43344 125,24.1948637 125,21.43344 C125,18.6720163 127.238576,16.43344 130,16.43344 C132.761424,16.43344 135,18.6720163 135,21.43344 C134.996896,24.1935771 132.760137,26.4303362 130,26.43344 L130,26.43344 Z M130,17.63344 C127.901318,17.63344 126.2,19.334758 126.2,21.43344 C126.2,23.532122 127.901318,25.23344 130,25.23344 C132.098682,25.23344 133.8,23.532122 133.8,21.43344 C133.797619,19.3357449 132.097695,17.6358207 130,17.63344 Z" id="Shape" fill="#3F3D56" fill-rule="nonzero"></path>
            <path d="M57.4,56.83344 L35.8,56.83344 C33.9231566,56.8312094 32.4022306,55.3102834 32.4,53.43344 L32.4,40.63344 C32.4022328,38.7565975 33.9231575,37.2356728 35.8,37.23344 L57.4,37.23344 C59.2768416,37.235675 60.797765,38.7565984 60.8,40.63344 L60.8,53.43344 C60.7977672,55.3102825 59.2768425,56.8312072 57.4,56.83344 L57.4,56.83344 Z" id="Path" fill="#E6E6E6" fill-rule="nonzero"></path>
            <path d="M99,56.83344 L77.4,56.83344 C75.5231566,56.8312094 74.0022306,55.3102834 74,53.43344 L74,40.63344 C74.0022328,38.7565975 75.5231575,37.2356728 77.4,37.23344 L99,37.23344 C100.876842,37.235675 102.397765,38.7565984 102.4,40.63344 L102.4,53.43344 C102.397767,55.3102825 100.876843,56.8312072 99,56.83344 Z" id="Path" fill="#E6E6E6" fill-rule="nonzero"></path>
            <path d="M119,37.63344 C117.343895,37.6352477 116.001808,38.9773351 116,40.63344 L116,53.43344 C116.001806,55.0895458 117.343894,56.4316345 119,56.43344 L140.6,56.43344 C142.256105,56.4316323 143.598192,55.0895449 143.6,53.43344 L143.6,40.63344 C143.598192,38.9773351 142.256105,37.6352477 140.6,37.63344 L119,37.63344 Z" id="Path" fill="#E6E6E6" fill-rule="nonzero"></path>
            <path d="M57.6,82.43344 L36,82.43344 C34.1231566,82.4312094 32.6022306,80.9102834 32.6,79.03344 L32.6,66.23344 C32.6022328,64.3565975 34.1231575,62.8356728 36,62.83344 L57.6,62.83344 C59.4768416,62.835675 60.997765,64.3565984 61,66.23344 L61,79.03344 C60.9977672,80.9102825 59.4768425,82.4312072 57.6,82.43344 L57.6,82.43344 Z" id="Path" fill="#E6E6E6" fill-rule="nonzero"></path>
            <path d="M99.2,82.43344 L77.6,82.43344 C75.7231566,82.4312094 74.2022306,80.9102834 74.2,79.03344 L74.2,66.23344 C74.2022328,64.3565975 75.7231575,62.8356728 77.6,62.83344 L99.2,62.83344 C101.076842,62.835675 102.597765,64.3565984 102.6,66.23344 L102.6,79.03344 C102.597767,80.9102825 101.076843,82.4312072 99.2,82.43344 L99.2,82.43344 Z" id="Path" fill="#E6E6E6" fill-rule="nonzero"></path>
            <path d="M140.8,82.43344 L119.2,82.43344 C117.323157,82.4312094 115.802231,80.9102834 115.8,79.03344 L115.8,66.23344 C115.802233,64.3565975 117.323157,62.8356728 119.2,62.83344 L140.8,62.83344 C142.676842,62.835675 144.197765,64.3565984 144.2,66.23344 L144.2,79.03344 C144.197767,80.9102825 142.676843,82.4312072 140.8,82.43344 L140.8,82.43344 Z" id="Path" fill="#E6E6E6" fill-rule="nonzero"></path>
            <path d="M45.6,22.83344 C44.8271888,22.8325055 44.2009345,22.2062512 44.2,21.43344 L44.2,1.43344 C44.2,0.66024135 44.8268014,0.03344 45.6,0.03344 C46.3731986,0.03344 47,0.66024135 47,1.43344 L47,21.43344 C46.9990633,22.2062503 46.3728103,22.8325033 45.6,22.83344 L45.6,22.83344 Z" id="Path" fill="#3F3D56" fill-rule="nonzero"></path>
            <path d="M130,22.83344 C129.227189,22.8325055 128.600935,22.2062512 128.6,21.43344 L128.6,1.43344 C128.6,0.66024135 129.226801,0.03344 130,0.03344 C130.773199,0.03344 131.4,0.66024135 131.4,1.43344 L131.4,21.43344 C131.399063,22.2062503 130.77281,22.8325033 130,22.83344 L130,22.83344 Z" id="Path" fill="#3F3D56" fill-rule="nonzero"></path>
            <path d="M45.783476,52.2219438 C45.1945381,52.2229303 44.6212462,52.0324002 44.15006,51.679084 L44.12086,51.657168 L37.968584,46.950872 C36.7702553,46.0321806 36.5435646,44.3159967 37.462256,43.117668 C38.3809474,41.9193393 40.0971313,41.6926486 41.29546,42.61134 L45.280412,45.667188 L54.697048,33.382112 C55.138035,32.8068951 55.7894651,32.4304197 56.50803,32.3355068 C57.226595,32.2405938 57.9534334,32.435018 58.528648,32.876008 L58.529448,32.8766 L58.471008,32.957748 L58.531032,32.8766 C59.7274732,33.7961262 59.9536323,35.5106891 59.036544,36.709 L47.9605,51.15248 C47.4411149,51.8270211 46.6371966,52.2211814 45.785868,52.2187 L45.783476,52.2219438 Z" id="b5e0804e-c461-433c-b77b-73087ef71cb0-104" fill="#25CAD3" fill-rule="nonzero"></path>
        </g>
    </g>
</svg>