<?xml version="1.0" encoding="UTF-8"?>
<svg width="194px" height="150px" viewBox="0 0 194 150" version="1.1" xmlns="http://www.w3.org/2000/svg" xmlns:xlink="http://www.w3.org/1999/xlink">
    <title>checkin</title>
    <g id="checkin" stroke="none" stroke-width="1" fill="none" fill-rule="evenodd">
        <g id="undraw_my_current_location_re_whmt" fill-rule="nonzero">
            <ellipse id="Oval" fill="#B20738" cx="148.365311" cy="115.483062" rx="10.319734" ry="21.0564277"></ellipse>
            <path d="M147.412323,149.949045 C151.545481,125.150864 147.453932,100.442274 147.41213,100.195796 L146.608153,100.331983 C146.649762,100.577279 150.717819,125.156045 146.607957,149.815249 L147.412323,149.949045 Z" id="Path" fill="#CACACA"></path>
            <polygon id="Rectangle" fill="#CACACA" transform="translate(143.753311, 113.810592) rotate(-61.858400) translate(-143.753311, -113.810592) " points="143.345525 108.519149 144.161097 108.519149 144.161097 119.102034 143.345525 119.102034"></polygon>
            <polygon id="Rectangle" fill="#CACACA" transform="translate(153.602806, 116.312315) rotate(-28.157960) translate(-153.602806, -116.312315) " points="148.311181 115.904529 158.89443 115.904529 158.89443 116.720101 148.311181 116.720101"></polygon>
            <ellipse id="Oval" fill="#E6E6E6" cx="173.16057" cy="82.1582574" rx="20.184183" ry="41.1839"></ellipse>
            <path d="M170.912353,149.505743 C178.985545,101.06736 170.993789,52.805383 170.912157,52.3235553 L170.108181,52.4597404 C170.189617,52.9403787 178.157887,101.072543 170.107987,149.371947 L170.912353,149.505743 Z" id="Path" fill="#CACACA"></path>
            <polygon id="Rectangle" fill="#CACACA" transform="translate(164.140089, 78.886963) rotate(-61.858400) translate(-164.140089, -78.886963) " points="163.732303 68.53727 164.547875 68.53727 164.547875 89.2366551 163.732303 89.2366551"></polygon>
            <polygon id="Rectangle" fill="#CACACA" transform="translate(183.404421, 83.780124) rotate(-28.157420) translate(-183.404421, -83.780124) " points="173.054722 83.372338 193.75412 83.372338 193.75412 84.1879103 173.054722 84.1879103"></polygon>
            <path d="M126.282874,149.635155 L18.921983,149.635155 C18.0998288,149.634196 17.4326213,148.967948 17.4326213,148.145794 L17.4326213,80.306283 C17.4326213,79.4841128 18.0998128,78.8178417 18.921983,78.8169213 L126.282874,78.8169213 C127.105029,78.8178792 127.772236,79.4841283 127.772236,80.306283 L127.772236,148.145794 C127.772236,148.967933 127.105014,149.634161 126.282874,149.635155 L126.282874,149.635155 Z" id="Path" fill="#E4E4E4"></path>
            <path d="M28.7952383,87.0377064 C28.4428756,87.0377064 28.1569404,87.3236415 28.1569404,87.6760043 L28.1569404,140.776279 C28.1569404,141.128641 28.4428756,141.414577 28.7952383,141.414577 L116.409619,141.414577 C116.761982,141.414577 117.047917,141.128641 117.047917,140.776279 L117.047917,87.6760043 C117.047917,87.3236415 116.761982,87.0377064 116.409619,87.0377064 L28.7952383,87.0377064 Z" id="Path" fill="#FFFFFF"></path>
            <path d="M117.26063,100.714298 L117.26063,97.3494426 L104.870491,97.3494426 L104.870491,86.8249298 L101.505611,86.8249298 L101.505611,97.3494426 L79.4470383,97.3494426 L79.4470383,86.8249298 L76.0822617,86.8249298 L76.0822617,97.3494426 L42.0597574,97.3494426 L42.0597574,86.8249298 L38.6948766,86.8249298 L38.6948766,97.3494426 L26.9301043,97.3494426 L26.9301043,100.714298 L38.6948766,100.714298 L38.6948766,113.79986 L26.9301043,113.79986 L26.9301043,117.164715 L38.6948766,117.164715 L38.6948766,131.184957 L26.9301043,131.184957 L26.9301043,134.549813 L56.8277638,134.549813 L56.8277638,141.627232 L60.1926447,141.627232 L60.1926447,134.549813 L76.0822532,134.549813 L76.0822532,141.627232 L79.4470298,141.627232 L79.4470298,134.549813 L117.26063,134.549813 L117.26063,131.184957 L79.4470383,131.184957 L79.4470383,117.164715 L117.26063,117.164715 L117.26063,113.79986 L104.870491,113.79986 L104.870491,100.714298 L117.26063,100.714298 Z M76.0822617,100.714298 L76.0822617,104.826911 L42.0597574,104.826911 L42.0597574,100.714298 L76.0822617,100.714298 Z M42.0597574,108.191766 L76.0822617,108.191766 L76.0822617,113.799851 L42.0597574,113.799851 L42.0597574,108.191766 Z M42.0597574,131.184957 L42.0597574,117.164715 L56.8277723,117.164715 L56.8277723,131.184957 L42.0597574,131.184957 Z M76.0822617,131.184957 L60.1926532,131.184957 L60.1926532,117.164715 L76.0822617,117.164715 L76.0822617,131.184957 Z M101.505611,113.799851 L79.4470383,113.799851 L79.4470383,100.714298 L101.505611,100.714298 L101.505611,113.799851 Z" id="Shape" fill="#E6E6E6"></path>
            <circle id="Oval" fill="#6CC049" cx="77.7646468" cy="115.907828" r="4.29953617"></circle>
            <polygon id="Path" fill="#CACACA" points="193.72617 149.999149 0 149.999149 0 149.534894 193.810213 149.534894"></polygon>
            <circle id="Oval" fill="#6CC049" cx="78.2800106" cy="63.8440149" r="26.5224255"></circle>
            <polygon id="Path" fill="#6CC049" points="78.5393617 106.958936 70.1602128 92.6453191 61.7810638 78.3317021 78.3665957 78.2319149 94.9521277 78.1321277 86.7457447 92.5455319"></polygon>
            <circle id="Oval" fill="#FFFFFF" cx="78.4929064" cy="63.6771745" r="9.51584894"></circle>
            <path d="M77.6665277,0.136280851 C77.6665277,0.136280851 71.9912915,-1.46238085 70.3126979,6.29111702 C68.6341043,14.0446149 69.7002681,13.0677128 69.7002681,13.0677128 L82.3696298,11.5889532 C82.3696298,11.5889532 86.1793872,2.49429787 77.6665277,0.136280851 Z" id="Path" fill="#2F2E41"></path>
            <path d="M69.413066,34.1511106 C69.413066,34.1511106 60.8510383,34.5474404 62.3337702,37.908283 C62.4385816,38.145856 62.5361589,38.3684418 62.6265021,38.5760404 C63.6863564,41.0103499 64.9063266,43.3717666 66.2783979,45.6447766 L71.5407255,54.3638766 L73.4556191,53.3000468 L68.0669574,39.2921745 L72.9105191,38.896783 L69.413066,34.1511106 Z" id="Path" fill="#FFB6B6"></path>
            <path d="M91.9882191,37.7105936 L94.7559702,43.740334 C94.7559702,43.740334 96.8317745,45.8161468 99.105283,54.1193957 C101.378791,62.4226447 101.873032,62.1261043 101.873032,62.1261043 L99.6258319,62.8745149 L90.4066298,46.1126936 L85.8596085,40.3795021 L87.243483,37.3152064 L91.9882191,37.7105936 Z" id="Path" fill="#FFB6B6"></path>
            <path d="M88.6273915,30.7912128 L92.6045553,38.1936638 C92.6045553,38.1936638 101.621609,55.9120872 100.689662,55.8532383 C99.6420596,55.787083 96.6995255,57.0081979 95.7960447,58.1936638 C95.359966,58.7658468 88.987534,44.7894085 86.7492617,41.6645298 L81.9056936,37.9082957 C81.9056936,37.9082957 68.1533255,40.222934 68.1364702,39.4702596 C68.1282149,39.1015702 72.6896043,47.9473447 71.7534915,47.555366 C70.6871085,47.1088404 68.1785043,49.2816957 67.0726404,48.8319617 C66.6163596,48.6464 63.3923064,40.8295255 62.0871957,37.6263872 C61.7479003,36.7977363 62.0954968,35.8470292 62.8892681,35.4326489 C63.8701,34.9225447 77.4981723,31.8106851 77.4981723,31.8106851 L77.259834,30.5935234 L78.2483234,28.6165574 L88.6273915,30.7912128 Z" id="Path" fill="#2F2E41"></path>
            <circle id="Oval" fill="#FFB6B6" transform="translate(76.666597, 8.352322) rotate(-80.782680) translate(-76.666597, -8.352322) " cx="76.6665973" cy="8.35232203" r="3.85508511"></circle>
            <path d="M88.987534,31.3851532 C89.2004043,32.0237617 87.821766,32.3905872 85.9001574,32.031766 C84.2375468,31.721383 82.4177383,31.3526787 80.9824511,31.0541574 C79.445366,30.7338915 78.3471745,30.4946809 78.3471745,30.4946809 C78.3471745,30.4946809 77.951783,32.965883 76.6667489,32.6693362 C75.5596553,32.4143064 72.251217,20.8579681 71.3566255,17.6641809 C71.2222716,17.1849665 71.4229991,16.6748681 71.8479021,16.4157255 L76.3919447,13.6410447 C76.3919447,13.6410447 79.5234574,12.5655745 80.6651532,12.5349362 C81.8068489,12.5042979 83.783817,12.2077489 83.783817,12.2077489 C83.783817,12.2077489 86.0573234,12.4054468 86.4527277,14.0858617 C86.8481319,15.7662766 88.4980149,25.7296383 88.528534,28.1223085 C88.5620021,30.7468553 88.3492362,29.4702596 88.987534,31.3851532 Z" id="Path" fill="#CACACA"></path>
            <path d="M78.1080085,3.40058298 C78.1080085,3.40058298 76.5093468,7.63702979 72.5926298,9.39555319 L71.9531702,5.63870426 L78.1080085,3.40058298 Z" id="Path" fill="#2F2E41"></path>
            <ellipse id="Oval" fill="#FFB6B6" cx="80.4229872" cy="6.86995319" rx="1" ry="1.03790638"></ellipse>
            <path d="M75.049,55.3523489 L67.4071128,58.8656255 L67.3626723,58.7689702 C66.6075182,57.1262652 67.3268888,55.182409 68.9695021,54.4270553 L68.9696915,54.4269681 L73.6371043,52.2811936 L75.049,55.3523489 Z" id="Path" fill="#2F2E41"></path>
            <path d="M98.486583,62.3713021 L103.174168,60.2699617 L103.174357,60.2698766 C104.82421,59.5304707 106.761095,60.2684002 107.500704,61.9181617 L107.544217,62.0152404 L99.8692766,65.4557128 L98.486583,62.3713021 Z" id="Path" fill="#2F2E41"></path>
            <polygon id="Path" fill="#000000" opacity="0.2" points="85.7959574 22.2361702 84.9010638 32.0789362 86.4919149 32.1540426"></polygon>
            <path d="M79.557934,40.6238277 C79.9417552,40.1953382 80.1160693,39.6188479 80.0339719,39.0494781 C79.9518746,38.4801083 79.6217991,37.9763458 79.1325617,37.6737426 L75.6945128,20.3065191 L71.7464,21.8169936 L76.3673553,38.4134383 C75.90328,39.2882288 76.1668458,40.3718672 76.9808513,40.9357991 C77.7948569,41.4997311 78.9020045,41.3657041 79.557934,40.6238277 L79.557934,40.6238277 Z" id="Path" fill="#FFB6B6"></path>
            <path d="M76.5643362,23.2335383 L72.2291511,23.9971043 C71.9795547,24.0410623 71.7231859,23.974201 71.5268492,23.8139433 C71.3305126,23.6536855 71.2136551,23.4159046 71.2067277,23.1625617 L71.0870787,18.7756 C70.8629315,17.4602242 71.7455479,16.2115385 73.0603299,15.9839338 C74.3751118,15.756329 75.6261137,16.6356593 75.8571745,17.9498383 L77.2401064,22.0998915 C77.3201547,22.3403552 77.2915714,22.6037528 77.1618048,22.8214478 C77.0320382,23.0391428 76.8139416,23.1895727 76.5643468,23.2335383 L76.5643362,23.2335383 Z" id="Path" fill="#CACACA"></path>
            <path d="M82.8818021,40.3182787 C83.3827587,40.035496 83.732729,39.5453433 83.8375417,38.9797127 C83.9423544,38.4140822 83.7912426,37.8310778 83.4248681,37.3875766 L85.7373532,19.8350043 L81.5133745,19.9997128 L80.5684809,37.2015234 C79.8484098,37.8813115 79.7505833,38.9922363 80.3407719,39.7874041 C80.9309605,40.5825718 82.0226142,40.8106418 82.8817957,40.3182787 L82.8818021,40.3182787 Z" id="Path" fill="#FFB6B6"></path>
            <path d="M85.6226638,22.8863809 L81.2715468,22.2195 C81.0210354,22.1811002 80.7996446,22.0355619 80.6650643,21.8208093 C80.530484,21.6060567 80.4960442,21.3433607 80.5707191,21.1011745 L81.8641128,16.9075043 C82.0736156,15.5897367 83.3100162,14.6900384 84.6283344,14.8960484 C85.9466525,15.1020583 86.8496241,16.3360704 86.6471085,17.6549298 L86.6262574,22.0292872 C86.6249707,22.2827215 86.513435,22.5230444 86.3207143,22.6876327 C86.1279936,22.8522209 85.8731767,22.9247721 85.6226638,22.8863809 L85.6226638,22.8863809 Z" id="Path" fill="#CACACA"></path>
        </g>
    </g>
</svg>